<?xml version="1.0" encoding="utf-8"?>
<!-- Generator: Adobe Illustrator 14.0.0, SVG Export Plug-In . SVG Version: 6.00 Build 43363)  -->
<!DOCTYPE svg PUBLIC "-//W3C//DTD SVG 1.1//EN" "http://www.w3.org/Graphics/SVG/1.1/DTD/svg11.dtd">
<svg version="1.1" id="图层_1" xmlns="http://www.w3.org/2000/svg" xmlns:xlink="http://www.w3.org/1999/xlink" x="0px" y="0px"
	 width="141.732px" height="141.732px" viewBox="0 0 141.732 141.732" enable-background="new 0 0 141.732 141.732"
	 xml:space="preserve">
<path opacity="0.1" fill="#FFFFFF" d="M82.544,131.397c-7.794,0.007-15.587,0.013-23.366,0.02c-1.709,0.017-3.188-0.704-3.309-1.624
	l0,0c9.823-0.008,19.66-0.016,29.498-0.023C85.278,130.595,84.08,131.287,82.544,131.397 M61.349,73.018l7.762-18.774h-0.088
	l-3.383-3.882c1.639,0.586,3.351,0.944,5.116,0.944c1.773,0,3.477-0.35,5.102-0.937l-3.376,3.875h-0.089l7.763,18.774h27.118
	c-2.24-9.701-13.177-21.081-27.399-24.685C86.56,43.838,91.156,34.97,91.156,26.99c0-11.27-9.134-20.401-20.401-20.401
	c-11.267,0-20.393,9.131-20.393,20.401c0,7.986,4.596,16.848,11.281,21.343c-14.221,3.604-25.157,14.984-27.397,24.685H61.349z
	 M68,82.902l-0.026-0.025H43.278l0.098,0.025H7.432c-4.973-0.063-8.141,2.607-7.115,5.853l0,0c2.77,8.203,5.335,15.781,7.696,22.797
	c2.193,6.517,4.239,12.6,6.155,18.279c-4.728,0.004-9.456,0.008-14.169,0.012c1.363,3.026,6.953,5.352,12.539,5.299l0,0
	c19.444-0.018,38.874-0.035,58.304-0.053c19.403-0.018,38.805-0.035,58.208-0.053c5.27,0.042,10.593-2.067,12.31-4.878
	c0.061-0.141,0.124-0.287,0.188-0.434c-4.714,0.004-9.413,0.007-14.112,0.012c1.946-5.669,4.038-11.739,6.283-18.25
	c2.412-6.995,5.002-14.556,7.814-22.743c1.042-3.244-2.115-5.893-7.05-5.841l0,0H98.138l0.099-0.025H73.534l-0.026,0.025h-2.496H68z
	"/>
</svg>
