<?xml version="1.0" encoding="utf-8"?>
<!-- Generator: Adobe Illustrator 14.0.0, SVG Export Plug-In . SVG Version: 6.00 Build 43363)  -->
<!DOCTYPE svg PUBLIC "-//W3C//DTD SVG 1.1//EN" "http://www.w3.org/Graphics/SVG/1.1/DTD/svg11.dtd">
<svg version="1.1" id="图层_1" xmlns="http://www.w3.org/2000/svg" xmlns:xlink="http://www.w3.org/1999/xlink" x="0px" y="0px"
	 width="141.732px" height="141.732px" viewBox="0 0 141.732 141.732" enable-background="new 0 0 141.732 141.732"
	 xml:space="preserve">
<path opacity="0.1" fill="#FFFFFF" d="M70.076,4.154c6.6,0,11.94,5.342,11.94,11.942c0,6.591-5.342,11.939-11.94,11.939
	c-6.593,0-11.942-5.349-11.942-11.939C58.134,9.497,63.483,4.154,70.076,4.154"/>
<polygon opacity="0.1" fill="#FFFFFF" points="98.247,90.829 101.651,58.286 107.758,58.286 107.758,48.518 84.856,48.518 
	84.361,31.635 74.688,29.834 70.283,35.11 65.729,29.834 55.195,31.635 55.195,48.518 32.438,48.518 32.438,58.286 38.536,58.286 
	41.941,90.829 "/>
<path opacity="0.1" fill="#FFFFFF" d="M130.155,95.094c4.178,0,7.577,3.392,7.577,7.574c0,4.188-3.399,7.586-7.577,7.586
	c-4.185,0-7.576-3.397-7.576-7.586C122.579,98.486,125.971,95.094,130.155,95.094"/>
<path opacity="0.1" fill="#FFFFFF" d="M91.668,95.094c4.185,0,7.576,3.392,7.576,7.574c0,4.188-3.393,7.586-7.576,7.586
	c-4.18,0-7.568-3.397-7.568-7.586C84.1,98.486,87.489,95.094,91.668,95.094"/>
<path opacity="0.1" fill="#FFFFFF" d="M50.602,95.101c4.179,0,7.569,3.393,7.569,7.567c0,4.188-3.39,7.577-7.569,7.577
	c-4.176,0-7.56-3.39-7.56-7.577C43.042,98.494,46.425,95.101,50.602,95.101"/>
<path opacity="0.1" fill="#FFFFFF" d="M10.974,94.384c4.177,0,7.575,3.392,7.575,7.574c0,4.188-3.398,7.577-7.575,7.577
	c-4.187,0-7.577-3.39-7.577-7.577C3.397,97.775,6.788,94.384,10.974,94.384"/>
<path opacity="0.1" fill="#FFFFFF" d="M130.155,115.474c6.018,0,10.895,4.874,10.895,10.892c0,6.023-4.877,10.909-10.895,10.909
	s-10.9-4.886-10.9-10.909C119.254,120.348,124.138,115.474,130.155,115.474"/>
<path opacity="0.1" fill="#FFFFFF" d="M90.64,115.466c6.019,0,10.896,4.876,10.896,10.895c0,6.022-4.877,10.906-10.896,10.906
	c-6.015,0-10.899-4.884-10.899-10.906C79.739,120.342,84.625,115.466,90.64,115.466"/>
<path opacity="0.1" fill="#FFFFFF" d="M109.855,103.183c4.405,0,7.974,3.559,7.974,7.973c0,4.405-3.567,7.973-7.974,7.973
	c-4.405,0-7.974-3.566-7.974-7.973C101.883,106.742,105.45,103.183,109.855,103.183"/>
<path opacity="0.1" fill="#FFFFFF" d="M119.782,135.205c-1.42-2.684-2.404-5.597-2.404-8.849c0-2.134,0.565-4.118,1.229-6.039
	h-0.788h-1.949h-2.947l-2.938,3.53l-3.037-3.53h-3.126h-1.743c0.811,1.854,1.272,3.898,1.272,6.039c0,3.5-1.235,6.715-3.267,9.342
	h19.697V135.205z"/>
<path opacity="0.1" fill="#FFFFFF" d="M50.602,115.474c6.018,0,10.901,4.874,10.901,10.892c0,6.023-4.883,10.909-10.901,10.909
	c-6.015,0-10.892-4.886-10.892-10.909C39.71,120.348,44.587,115.474,50.602,115.474"/>
<path opacity="0.1" fill="#FFFFFF" d="M69.803,103.183c4.404,0,7.973,3.559,7.973,7.973c0,4.405-3.566,7.973-7.973,7.973
	s-7.974-3.566-7.974-7.973C61.829,106.742,65.397,103.183,69.803,103.183"/>
<path opacity="0.1" fill="#FFFFFF" d="M79.729,135.205c-1.402-2.684-2.412-5.597-2.412-8.849c0-2.134,0.581-4.118,1.229-6.039h-0.78
	h-1.94h-2.957l-2.936,3.53l-3.038-3.53h-3.125h-1.736c0.802,1.854,1.265,3.898,1.265,6.039c0,3.5-1.228,6.715-3.265,9.342H79.73
	L79.729,135.205L79.729,135.205z"/>
<path opacity="0.1" fill="#FFFFFF" d="M11.585,115.774c6.016,0,10.893,4.877,10.893,10.895c0,6.023-4.877,10.909-10.893,10.909
	c-6.017,0-10.902-4.886-10.902-10.909C0.683,120.651,5.568,115.774,11.585,115.774"/>
<path opacity="0.1" fill="#FFFFFF" d="M30.792,103.492c4.405,0,7.973,3.561,7.973,7.973c0,4.405-3.567,7.974-7.973,7.974
	s-7.973-3.567-7.973-7.974C22.819,107.052,26.387,103.492,30.792,103.492"/>
<path opacity="0.1" fill="#FFFFFF" d="M40.719,135.513c-1.405-2.685-2.406-5.598-2.406-8.834c0-2.147,0.575-4.134,1.229-6.054
	h-0.779h-1.949h-2.951l-2.934,3.529l-3.046-3.529h-3.12H23.02c0.802,1.868,1.274,3.898,1.274,6.046c0,3.501-1.236,6.717-3.259,9.335
	h19.691L40.719,135.513z"/>
</svg>
